<svg class="icon__icon" width="32" height="32" fill="#4d4d4d" preserveAspectRatio="xMinYMin" viewBox="-2 -5 24 24" xmlns="http://www.w3.org/2000/svg"><defs><clipPath id="a"><path d="M17.46 7.096a4.61 4.41 0 0 1-4.603 4.409 4.61 4.41 0 0 1-4.615-4.398 4.61 4.41 0 0 1 4.591-4.421 4.61 4.41 0 0 1 4.627 4.387" fill="#501616" opacity=".5"/></clipPath></defs><path d="M7 2a5 5 0 1 0 0 10h6a5 5 0 0 0 0-10H7zm0-2h6a7 7 0 0 1 0 14H7A7 7 0 0 1 7 0zm6 11a4 4 0 1 1 0-8 4 4 0 0 1 0 8zm0-2a2 2 0 1 0 0-4 2 2 0 0 0 0 4z" clip-path="url(#a)"/></svg>