<svg class="icon__icon" width="32" height="32" fill="#cbd0d0" preserveAspectRatio="xMinYMin" viewBox="-2 -5 24 24" xmlns="http://www.w3.org/2000/svg"><defs><clipPath id="a"><path class="powerclip" d="M-5-5h30v24H-5zM11.84 6.97a4.631 4.407 0 0 0-4.65-4.384 4.631 4.407 0 0 0-4.613 4.418A4.631 4.407 0 0 0 7.215 11.4a4.631 4.407 0 0 0 4.625-4.407" fill="#501616" opacity=".5"/></clipPath></defs><path d="M7 2a5 5 0 1 0 0 10h6a5 5 0 0 0 0-10zm0-2h6a7 7 0 0 1 0 14H7A7 7 0 0 1 7 0zm0 11a4 4 0 1 1 0-8 4 4 0 0 1 0 8zm0-2a2 2 0 1 0 0-4 2 2 0 0 0 0 4z" clip-path="url(#a)"/></svg>